# xmcd
#
# Track frame offsets: 
#        150
#        7888
#        17072
#        23010
#        39898
#        45986
#        56570
#        61822
#        79271
#        85365
#        97022
#        102660
#        115877
#        142493
#        148434
#        165949
#        171828
#
# Disc length: 2459 seconds
#
# Revision: 0
# Processed by: cddbd v1.5.2PL0 Copyright (c) Steve Scherf et al.
# Submitted via: ExactAudioCopy v0.99pb1
#
DISCID=e0099911
DTITLE=Н.Приезжева - Я себе нагадаю
DYEAR=2005
DGENRE=Acoustic
TTITLE0=Оставшимся на перроне...
TTITLE1=Самовнушение
TTITLE2=Последняя любовь...
TTITLE3=Лунный романс
TTITLE4=Неторопливая песня
TTITLE5=Самым странным странникам
TTITLE6=Осень уходящая
TTITLE7=Тихая песня
TTITLE8=Разговор по международному телефону...
TTITLE9=Песня ветрянных вопросов
TTITLE10=Мы не умрем...
TTITLE11=Последняя песня
TTITLE12=Троллейбус надежды
TTITLE13=Посвящение Андрею Крючкову
TTITLE14=Плывет по Волге тишина...
TTITLE15=Женская рулетка...
TTITLE16=Я себе нагадаю...
EXTD=
EXTT0=
EXTT1=
EXTT2=
EXTT3=
EXTT4=
EXTT5=
EXTT6=
EXTT7=
EXTT8=
EXTT9=
EXTT10=
EXTT11=
EXTT12=
EXTT13=
EXTT14=
EXTT15=
EXTT16=
PLAYORDER=
